<?xml version="1.0" encoding="UTF-8" standalone="no"?>
<!-- Created by Syntax-Trax http://kevinpt.github.io/syntax-trax -->
<svg xmlns="http://www.w3.org/2000/svg"
xmlns:xlink="http://www.w3.org/1999/xlink"
xml:space="preserve"
width="431" height="160" version="1.1">
<style type="text/css">
<![CDATA[
.box_font {fill:#000000; text-anchor:middle;
    font-family:Times; font-size:14pt; font-weight:normal; font-style:italic;}
.bubble_font {fill:#000000; text-anchor:middle;
    font-family:Helvetica; font-size:14pt; font-weight:bold; font-style:normal;}
.title_font {fill:#000000; text-anchor:middle;
    font-family:Helvetica; font-size:22pt; font-weight:bold; font-style:normal;}
.token_font {fill:#000000; text-anchor:middle;
    font-family:Helvetica; font-size:16pt; font-weight:bold; font-style:normal;}
.label {fill:#000;
  text-anchor:middle;
  font-size:16pt; font-weight:bold; font-family:Sans;}
.link {fill: #0D47A1;}
.link:hover {fill: #0D47A1; text-decoration:underline;}
.link:visited {fill: #4A148C;}
]]>
</style>
<defs>
  <marker id="arrow" markerWidth="5" markerHeight="4" refX="2.5" refY="2" orient="auto" markerUnits="strokeWidth">
    <path d="M0,0 L0.5,2 L0,4 L4.5,2 z" fill="#000000" />
  </marker>
</defs>
<rect width="100%" height="100%" fill="white"/><rect x="33.0" y="12.0" width="90.0" height="30.0" stroke="none" fill-opacity="0.498039215686" fill="#000000"/>
<path d="M186.0,43.0 A16.0,16.0 0 0,1 186.0,11.0 H189.0 A16.0,16.0 0 0,1 189.0,43.0 z" stroke="none" fill-opacity="0.498039215686" fill="#000000"/>
<path d="M186.0,81.0 A16.0,16.0 0 0,1 186.0,49.0 H202.0 A16.0,16.0 0 0,1 202.0,81.0 z" stroke="none" fill-opacity="0.498039215686" fill="#000000"/>
<circle cx="186.5" cy="103.0" r="16.0" stroke="none" fill-opacity="0.498039215686" fill="#000000"/>
<path d="M186.0,157.0 A16.0,16.0 0 0,1 186.0,125.0 H200.0 A16.0,16.0 0 0,1 200.0,157.0 z" stroke="none" fill-opacity="0.498039215686" fill="#000000"/>
<circle cx="301.0" cy="27.0" r="18.0" stroke="none" fill-opacity="0.498039215686" fill="#000000"/>
<rect x="338.0" y="12.0" width="48.0" height="30.0" stroke="none" fill-opacity="0.498039215686" fill="#000000"/>
<circle cx="9" cy="23.0" r="3" stroke="#000000" stroke-width="2" fill="#FFFFFF"/>
<rect x="30.0" y="9.0" width="90.0" height="30.0" stroke="#000000" stroke-width="2" fill="#90A4AE"/>
<text class="box_font" x="75.0" y="31.0">instruction</text>
<path d="M183.0,40.0 A16.0,16.0 0 0,1 183.0,8.0 H186.0 A16.0,16.0 0 0,1 186.0,40.0 z" stroke="#000000" stroke-width="2" fill="#B3E5FC"/>
<text class="bubble_font" x="184.5" y="31.0">C</text>
<path d="M183.0,78.0 A16.0,16.0 0 0,1 183.0,46.0 H199.0 A16.0,16.0 0 0,1 199.0,78.0 z" stroke="#000000" stroke-width="2" fill="#B3E5FC"/>
<text class="bubble_font" x="191.0" y="69.0">NC</text>
<circle cx="183.5" cy="100.0" r="16.0" stroke="#000000" stroke-width="2" fill="#B3E5FC"/>
<text class="bubble_font" x="183.5" y="107.0">Z</text>
<path d="M183.0,154.0 A16.0,16.0 0 0,1 183.0,122.0 H197.0 A16.0,16.0 0 0,1 197.0,154.0 z" stroke="#000000" stroke-width="2" fill="#B3E5FC"/>
<text class="bubble_font" x="190.0" y="145.0">NZ</text>
<line x1="138.0" y1="23.0" x2="162.0" y2="23.0" stroke="#000000" stroke-width="2" marker-end="url(#arrow)" />
<line x1="203.0" y1="23.0" x2="245.0" y2="23.0" stroke="#000000" stroke-width="2" />
<path d="M147.0,32.0 A9.0,9.0 0 0,0 138.0,23.0" stroke="#000000" stroke-width="2" fill="none"/>
<line x1="156.0" y1="61.0" x2="162.0" y2="61.0" stroke="#000000" stroke-width="2" marker-end="url(#arrow)" />
<line x1="216.0" y1="61.0" x2="222.0" y2="61.0" stroke="#000000" stroke-width="2" marker-end="url(#arrow)" />
<path d="M147.0,52.0 A9.0,9.0 0 0,0 156.0,61.0" stroke="#000000" stroke-width="2" fill="none"/>
<path d="M226.0,61.0 A9.0,9.0 0 0,0 235.0,52.0" stroke="#000000" stroke-width="2" fill="none"/>
<line x1="156.0" y1="99.0" x2="162.0" y2="99.0" stroke="#000000" stroke-width="2" marker-end="url(#arrow)" />
<line x1="201.0" y1="99.0" x2="222.0" y2="99.0" stroke="#000000" stroke-width="2" marker-end="url(#arrow)" />
<path d="M147.0,90.0 A9.0,9.0 0 0,0 156.0,99.0" stroke="#000000" stroke-width="2" fill="none"/>
<path d="M226.0,99.0 A9.0,9.0 0 0,0 235.0,90.0" stroke="#000000" stroke-width="2" fill="none"/>
<line x1="156.0" y1="137.0" x2="162.0" y2="137.0" stroke="#000000" stroke-width="2" marker-end="url(#arrow)" />
<line x1="214.0" y1="137.0" x2="222.0" y2="137.0" stroke="#000000" stroke-width="2" marker-end="url(#arrow)" />
<path d="M147.0,128.0 A9.0,9.0 0 0,0 156.0,137.0" stroke="#000000" stroke-width="2" fill="none"/>
<path d="M226.0,137.0 A9.0,9.0 0 0,0 235.0,128.0" stroke="#000000" stroke-width="2" fill="none"/>
<path d="M244.0,23.0 A9.0,9.0 0 0,0 235.0,32.0" stroke="#000000" stroke-width="2" fill="none"/>
<line x1="147.0" y1="128.0" x2="147.0" y2="32.0" stroke="#000000" stroke-width="2" />
<line x1="235.0" y1="128.0" x2="235.0" y2="32.0" stroke="#000000" stroke-width="2" />
<line x1="120.0" y1="23.0" x2="134.0" y2="23.0" stroke="#000000" stroke-width="2" marker-end="url(#arrow)" />
<circle cx="298.0" cy="24.0" r="18.0" stroke="#000000" stroke-width="2" fill="#B3E5FC"/>
<text class="token_font" x="298.0" y="32.0">,</text>
<rect x="335.0" y="9.0" width="48.0" height="30.0" stroke="#000000" stroke-width="2" fill="#90A4AE"/>
<text class="box_font" x="359.0" y="31.0">label</text>
<line x1="316.0" y1="23.0" x2="330.0" y2="23.0" stroke="#000000" stroke-width="2" marker-end="url(#arrow)" />
<line x1="330.0" y1="48.0" x2="331.0" y2="48.0" stroke="#000000" stroke-width="2" />
<line x1="261.0" y1="23.0" x2="275.0" y2="23.0" stroke="#000000" stroke-width="2" marker-end="url(#arrow)" />
<line x1="384.0" y1="23.0" x2="403.0" y2="23.0" stroke="#000000" stroke-width="2" />
<path d="M270.0,32.0 A9.0,9.0 0 0,0 261.0,23.0" stroke="#000000" stroke-width="2" fill="none"/>
<line x1="279.0" y1="48.0" x2="326.0" y2="48.0" stroke="#000000" stroke-width="2" marker-end="url(#arrow)" />
<line x1="331.0" y1="48.0" x2="380.0" y2="48.0" stroke="#000000" stroke-width="2" marker-end="url(#arrow)" />
<path d="M270.0,39.0 A9.0,9.0 0 0,0 279.0,48.0" stroke="#000000" stroke-width="2" fill="none"/>
<path d="M384.0,48.0 A9.0,9.0 0 0,0 393.0,39.0" stroke="#000000" stroke-width="2" fill="none"/>
<path d="M402.0,23.0 A9.0,9.0 0 0,0 393.0,32.0" stroke="#000000" stroke-width="2" fill="none"/>
<line x1="270.0" y1="39.0" x2="270.0" y2="32.0" stroke="#000000" stroke-width="2" />
<line x1="393.0" y1="39.0" x2="393.0" y2="32.0" stroke="#000000" stroke-width="2" />
<line x1="243.0" y1="23.0" x2="257.0" y2="23.0" stroke="#000000" stroke-width="2" marker-end="url(#arrow)" />
<line x1="11" y1="23.0" x2="25.0" y2="23.0" stroke="#000000" stroke-width="2" marker-end="url(#arrow)" />
<circle cx="422.0" cy="23.0" r="3.0" stroke="#000000" stroke-width="2" fill="#FFFFFF"/>
<line x1="401.0" y1="23.0" x2="415.0" y2="23.0" stroke="#000000" stroke-width="2" marker-end="url(#arrow)" />
</svg>