<?xml version="1.0" encoding="UTF-8" standalone="no"?>
<!-- Created by Syntax-Trax http://kevinpt.github.io/syntax-trax -->
<svg xmlns="http://www.w3.org/2000/svg"
xmlns:xlink="http://www.w3.org/1999/xlink"
xml:space="preserve"
width="433" height="68" version="1.1">
<style type="text/css">
<![CDATA[
.box_font {fill:#000000; text-anchor:middle;
    font-family:Times; font-size:14pt; font-weight:normal; font-style:italic;}
.bubble_font {fill:#000000; text-anchor:middle;
    font-family:Helvetica; font-size:14pt; font-weight:bold; font-style:normal;}
.title_font {fill:#000000; text-anchor:middle;
    font-family:Helvetica; font-size:22pt; font-weight:bold; font-style:normal;}
.token_font {fill:#000000; text-anchor:middle;
    font-family:Helvetica; font-size:16pt; font-weight:bold; font-style:normal;}
.label {fill:#000;
  text-anchor:middle;
  font-size:16pt; font-weight:bold; font-family:Sans;}
.link {fill: #0D47A1;}
.link:hover {fill: #0D47A1; text-decoration:underline;}
.link:visited {fill: #4A148C;}
]]>
</style>
<defs>
  <marker id="arrow" markerWidth="5" markerHeight="4" refX="2.5" refY="2" orient="auto" markerUnits="strokeWidth">
    <path d="M0,0 L0.5,2 L0,4 L4.5,2 z" fill="#000000" />
  </marker>
</defs>
<rect width="100%" height="100%" fill="white"/><rect x="33.0" y="9.0" width="90.0" height="30.0" stroke="none" fill-opacity="0.498039215686" fill="#000000"/>
<rect x="142.0" y="9.0" width="67.0" height="30.0" stroke="none" fill-opacity="0.498039215686" fill="#000000"/>
<circle cx="274.0" cy="47.0" r="18.0" stroke="none" fill-opacity="0.498039215686" fill="#000000"/>
<rect x="311.0" y="32.0" width="67.0" height="30.0" stroke="none" fill-opacity="0.498039215686" fill="#000000"/>
<circle cx="9" cy="20.0" r="3" stroke="#000000" stroke-width="2" fill="#FFFFFF"/>
<rect x="30.0" y="6.0" width="90.0" height="30.0" stroke="#000000" stroke-width="2" fill="#90A4AE"/>
<text class="box_font" x="75.0" y="28.0">instruction</text>
<rect x="139.0" y="6.0" width="67.0" height="30.0" stroke="#000000" stroke-width="2" fill="#90A4AE"/>
<text class="box_font" x="172.5" y="28.0">register</text>
<line x1="120.0" y1="20.0" x2="134.0" y2="20.0" stroke="#000000" stroke-width="2" marker-end="url(#arrow)" />
<line x1="312.5" y1="20.0" x2="313.5" y2="20.0" stroke="#000000" stroke-width="2" />
<circle cx="271.0" cy="44.0" r="18.0" stroke="#000000" stroke-width="2" fill="#B3E5FC"/>
<text class="token_font" x="271.0" y="52.0">,</text>
<rect x="308.0" y="29.0" width="67.0" height="30.0" stroke="#000000" stroke-width="2" fill="#90A4AE"/>
<text class="box_font" x="341.5" y="51.0">register</text>
<line x1="289.0" y1="43.0" x2="303.0" y2="43.0" stroke="#000000" stroke-width="2" marker-end="url(#arrow)" />
<line x1="224.0" y1="20.0" x2="308.5" y2="20.0" stroke="#000000" stroke-width="2" marker-end="url(#arrow)" />
<line x1="313.5" y1="20.0" x2="405.0" y2="20.0" stroke="#000000" stroke-width="2" />
<path d="M233.0,29.0 A9.0,9.0 0 0,0 224.0,20.0" stroke="#000000" stroke-width="2" fill="none"/>
<line x1="242.0" y1="43.0" x2="248.0" y2="43.0" stroke="#000000" stroke-width="2" marker-end="url(#arrow)" />
<line x1="376.0" y1="43.0" x2="382.0" y2="43.0" stroke="#000000" stroke-width="2" marker-end="url(#arrow)" />
<path d="M233.0,34.0 A9.0,9.0 0 0,0 242.0,43.0" stroke="#000000" stroke-width="2" fill="none"/>
<path d="M386.0,43.0 A9.0,9.0 0 0,0 395.0,34.0" stroke="#000000" stroke-width="2" fill="none"/>
<path d="M404.0,20.0 A9.0,9.0 0 0,0 395.0,29.0" stroke="#000000" stroke-width="2" fill="none"/>
<line x1="233.0" y1="34.0" x2="233.0" y2="29.0" stroke="#000000" stroke-width="2" />
<line x1="395.0" y1="34.0" x2="395.0" y2="29.0" stroke="#000000" stroke-width="2" />
<line x1="206.0" y1="20.0" x2="220.0" y2="20.0" stroke="#000000" stroke-width="2" marker-end="url(#arrow)" />
<line x1="11" y1="20.0" x2="25.0" y2="20.0" stroke="#000000" stroke-width="2" marker-end="url(#arrow)" />
<circle cx="424.0" cy="20.0" r="3.0" stroke="#000000" stroke-width="2" fill="#FFFFFF"/>
<line x1="403.0" y1="20.0" x2="417.0" y2="20.0" stroke="#000000" stroke-width="2" marker-end="url(#arrow)" />
</svg>