<?xml version="1.0" encoding="UTF-8" standalone="no"?>
<!-- Created by Syntax-Trax http://kevinpt.github.io/syntax-trax -->
<svg xmlns="http://www.w3.org/2000/svg"
xmlns:xlink="http://www.w3.org/1999/xlink"
xml:space="preserve"
width="487" height="48" version="1.1">
<style type="text/css">
<![CDATA[
.box_font {fill:#000000; text-anchor:middle;
    font-family:Times; font-size:14pt; font-weight:normal; font-style:italic;}
.bubble_font {fill:#000000; text-anchor:middle;
    font-family:Helvetica; font-size:14pt; font-weight:bold; font-style:normal;}
.title_font {fill:#000000; text-anchor:middle;
    font-family:Helvetica; font-size:22pt; font-weight:bold; font-style:normal;}
.token_font {fill:#000000; text-anchor:middle;
    font-family:Helvetica; font-size:16pt; font-weight:bold; font-style:normal;}
.label {fill:#000;
  text-anchor:middle;
  font-size:16pt; font-weight:bold; font-family:Sans;}
.link {fill: #0D47A1;}
.link:hover {fill: #0D47A1; text-decoration:underline;}
.link:visited {fill: #4A148C;}
]]>
</style>
<defs>
  <marker id="arrow" markerWidth="5" markerHeight="4" refX="2.5" refY="2" orient="auto" markerUnits="strokeWidth">
    <path d="M0,0 L0.5,2 L0,4 L4.5,2 z" fill="#000000" />
  </marker>
</defs>
<rect width="100%" height="100%" fill="white"/><rect x="33.0" y="12.0" width="90.0" height="30.0" stroke="none" fill-opacity="0.498039215686" fill="#000000"/>
<circle cx="160.0" cy="27.0" r="18.0" stroke="none" fill-opacity="0.498039215686" fill="#000000"/>
<rect x="197.0" y="12.0" width="67.0" height="30.0" stroke="none" fill-opacity="0.498039215686" fill="#000000"/>
<circle cx="301.0" cy="27.0" r="18.0" stroke="none" fill-opacity="0.498039215686" fill="#000000"/>
<rect x="338.0" y="12.0" width="67.0" height="30.0" stroke="none" fill-opacity="0.498039215686" fill="#000000"/>
<circle cx="442.0" cy="27.0" r="18.0" stroke="none" fill-opacity="0.498039215686" fill="#000000"/>
<circle cx="9" cy="23.0" r="3" stroke="#000000" stroke-width="2" fill="#FFFFFF"/>
<rect x="30.0" y="9.0" width="90.0" height="30.0" stroke="#000000" stroke-width="2" fill="#90A4AE"/>
<text class="box_font" x="75.0" y="31.0">instruction</text>
<circle cx="157.0" cy="24.0" r="18.0" stroke="#000000" stroke-width="2" fill="#B3E5FC"/>
<text class="token_font" x="157.0" y="32.0">(</text>
<line x1="120.0" y1="23.0" x2="134.0" y2="23.0" stroke="#000000" stroke-width="2" marker-end="url(#arrow)" />
<rect x="194.0" y="9.0" width="67.0" height="30.0" stroke="#000000" stroke-width="2" fill="#90A4AE"/>
<text class="box_font" x="227.5" y="31.0">register</text>
<line x1="175.0" y1="23.0" x2="189.0" y2="23.0" stroke="#000000" stroke-width="2" marker-end="url(#arrow)" />
<circle cx="298.0" cy="24.0" r="18.0" stroke="#000000" stroke-width="2" fill="#B3E5FC"/>
<text class="token_font" x="298.0" y="32.0">,</text>
<line x1="261.0" y1="23.0" x2="275.0" y2="23.0" stroke="#000000" stroke-width="2" marker-end="url(#arrow)" />
<rect x="335.0" y="9.0" width="67.0" height="30.0" stroke="#000000" stroke-width="2" fill="#90A4AE"/>
<text class="box_font" x="368.5" y="31.0">register</text>
<line x1="316.0" y1="23.0" x2="330.0" y2="23.0" stroke="#000000" stroke-width="2" marker-end="url(#arrow)" />
<circle cx="439.0" cy="24.0" r="18.0" stroke="#000000" stroke-width="2" fill="#B3E5FC"/>
<text class="token_font" x="439.0" y="32.0">)</text>
<line x1="402.0" y1="23.0" x2="416.0" y2="23.0" stroke="#000000" stroke-width="2" marker-end="url(#arrow)" />
<line x1="11" y1="23.0" x2="25.0" y2="23.0" stroke="#000000" stroke-width="2" marker-end="url(#arrow)" />
<circle cx="478.0" cy="23.0" r="3.0" stroke="#000000" stroke-width="2" fill="#FFFFFF"/>
<line x1="457.0" y1="23.0" x2="471.0" y2="23.0" stroke="#000000" stroke-width="2" marker-end="url(#arrow)" />
</svg>