<?xml version="1.0" encoding="UTF-8" standalone="no"?>
<!-- Created by Syntax-Trax http://kevinpt.github.io/syntax-trax -->
<svg xmlns="http://www.w3.org/2000/svg"
xmlns:xlink="http://www.w3.org/1999/xlink"
xml:space="preserve"
width="375" height="48" version="1.1">
<style type="text/css">
<![CDATA[
.box_font {fill:#000000; text-anchor:middle;
    font-family:Times; font-size:14pt; font-weight:normal; font-style:italic;}
.bubble_font {fill:#000000; text-anchor:middle;
    font-family:Helvetica; font-size:14pt; font-weight:bold; font-style:normal;}
.title_font {fill:#000000; text-anchor:middle;
    font-family:Helvetica; font-size:22pt; font-weight:bold; font-style:normal;}
.token_font {fill:#000000; text-anchor:middle;
    font-family:Helvetica; font-size:16pt; font-weight:bold; font-style:normal;}
.label {fill:#000;
  text-anchor:middle;
  font-size:16pt; font-weight:bold; font-family:Sans;}
.link {fill: #0D47A1;}
.link:hover {fill: #0D47A1; text-decoration:underline;}
.link:visited {fill: #4A148C;}
]]>
</style>
<defs>
  <marker id="arrow" markerWidth="5" markerHeight="4" refX="2.5" refY="2" orient="auto" markerUnits="strokeWidth">
    <path d="M0,0 L0.5,2 L0,4 L4.5,2 z" fill="#000000" />
  </marker>
</defs>
<rect width="100%" height="100%" fill="white"/><path d="M49.0,43.0 A16.0,16.0 0 0,1 49.0,11.0 H127.0 A16.0,16.0 0 0,1 127.0,43.0 z" stroke="none" fill-opacity="0.498039215686" fill="#000000"/>
<rect x="162.0" y="12.0" width="56.0" height="30.0" stroke="none" fill-opacity="0.498039215686" fill="#000000"/>
<circle cx="255.0" cy="27.0" r="18.0" stroke="none" fill-opacity="0.498039215686" fill="#000000"/>
<rect x="292.0" y="12.0" width="56.0" height="30.0" stroke="none" fill-opacity="0.498039215686" fill="#000000"/>
<circle cx="9" cy="23.0" r="3" stroke="#000000" stroke-width="2" fill="#FFFFFF"/>
<path d="M46.0,40.0 A16.0,16.0 0 0,1 46.0,8.0 H124.0 A16.0,16.0 0 0,1 124.0,40.0 z" stroke="#000000" stroke-width="2" fill="#B3E5FC"/>
<text class="bubble_font" x="85.0" y="31.0">OUTPUTK</text>
<rect x="159.0" y="9.0" width="56.0" height="30.0" stroke="#000000" stroke-width="2" fill="#90A4AE"/>
<text class="box_font" x="187.0" y="31.0">literal</text>
<line x1="140.0" y1="23.0" x2="154.0" y2="23.0" stroke="#000000" stroke-width="2" marker-end="url(#arrow)" />
<circle cx="252.0" cy="24.0" r="18.0" stroke="#000000" stroke-width="2" fill="#B3E5FC"/>
<text class="token_font" x="252.0" y="32.0">,</text>
<line x1="215.0" y1="23.0" x2="229.0" y2="23.0" stroke="#000000" stroke-width="2" marker-end="url(#arrow)" />
<rect x="289.0" y="9.0" width="56.0" height="30.0" stroke="#000000" stroke-width="2" fill="#90A4AE"/>
<text class="box_font" x="317.0" y="31.0">literal</text>
<line x1="270.0" y1="23.0" x2="284.0" y2="23.0" stroke="#000000" stroke-width="2" marker-end="url(#arrow)" />
<line x1="11" y1="23.0" x2="25.0" y2="23.0" stroke="#000000" stroke-width="2" marker-end="url(#arrow)" />
<circle cx="366.0" cy="23.0" r="3.0" stroke="#000000" stroke-width="2" fill="#FFFFFF"/>
<line x1="345.0" y1="23.0" x2="359.0" y2="23.0" stroke="#000000" stroke-width="2" marker-end="url(#arrow)" />
</svg>