<?xml version="1.0" encoding="UTF-8" standalone="no"?>
<!-- Created by Syntax-Trax http://kevinpt.github.io/syntax-trax -->
<svg xmlns="http://www.w3.org/2000/svg"
xmlns:xlink="http://www.w3.org/1999/xlink"
xml:space="preserve"
width="699" height="73" version="1.1">
<style type="text/css">
<![CDATA[
.box_font {fill:#000000; text-anchor:middle;
    font-family:Times; font-size:14pt; font-weight:normal; font-style:italic;}
.bubble_font {fill:#000000; text-anchor:middle;
    font-family:Helvetica; font-size:14pt; font-weight:bold; font-style:normal;}
.title_font {fill:#000000; text-anchor:middle;
    font-family:Helvetica; font-size:22pt; font-weight:bold; font-style:normal;}
.token_font {fill:#000000; text-anchor:middle;
    font-family:Helvetica; font-size:16pt; font-weight:bold; font-style:normal;}
.label {fill:#000;
  text-anchor:middle;
  font-size:16pt; font-weight:bold; font-family:Sans;}
.link {fill: #0D47A1;}
.link:hover {fill: #0D47A1; text-decoration:underline;}
.link:visited {fill: #4A148C;}
]]>
</style>
<defs>
  <marker id="arrow" markerWidth="5" markerHeight="4" refX="2.5" refY="2" orient="auto" markerUnits="strokeWidth">
    <path d="M0,0 L0.5,2 L0,4 L4.5,2 z" fill="#000000" />
  </marker>
</defs>
<rect width="100%" height="100%" fill="white"/><rect x="61.0" y="32.0" width="48.0" height="30.0" stroke="none" fill-opacity="0.498039215686" fill="#000000"/>
<circle cx="146.0" cy="47.0" r="18.0" stroke="none" fill-opacity="0.498039215686" fill="#000000"/>
<rect x="229.0" y="9.0" width="90.0" height="30.0" stroke="none" fill-opacity="0.498039215686" fill="#000000"/>
<rect x="355.0" y="34.0" width="79.0" height="30.0" stroke="none" fill-opacity="0.498039215686" fill="#000000"/>
<circle cx="530.5" cy="47.0" r="18.0" stroke="none" fill-opacity="0.498039215686" fill="#000000"/>
<rect x="567.5" y="32.0" width="77.0" height="30.0" stroke="none" fill-opacity="0.498039215686" fill="#000000"/>
<circle cx="9" cy="20.0" r="3" stroke="#000000" stroke-width="2" fill="#FFFFFF"/>
<line x1="108.0" y1="20.0" x2="109.0" y2="20.0" stroke="#000000" stroke-width="2" />
<rect x="58.0" y="29.0" width="48.0" height="30.0" stroke="#000000" stroke-width="2" fill="#90A4AE"/>
<text class="box_font" x="82.0" y="51.0">label</text>
<circle cx="143.0" cy="44.0" r="18.0" stroke="#000000" stroke-width="2" fill="#B3E5FC"/>
<text class="token_font" x="143.0" y="52.0">:</text>
<line x1="106.0" y1="43.0" x2="120.0" y2="43.0" stroke="#000000" stroke-width="2" marker-end="url(#arrow)" />
<line x1="29" y1="20.0" x2="104.0" y2="20.0" stroke="#000000" stroke-width="2" marker-end="url(#arrow)" />
<line x1="109.0" y1="20.0" x2="191.0" y2="20.0" stroke="#000000" stroke-width="2" />
<path d="M38.0,29.0 A9,9 0 0,0 29.0,20.0" stroke="#000000" stroke-width="2" fill="none"/>
<line x1="47" y1="43.0" x2="53.0" y2="43.0" stroke="#000000" stroke-width="2" marker-end="url(#arrow)" />
<line x1="162.0" y1="43.0" x2="168.0" y2="43.0" stroke="#000000" stroke-width="2" marker-end="url(#arrow)" />
<path d="M38.0,34.0 A9,9 0 0,0 47.0,43.0" stroke="#000000" stroke-width="2" fill="none"/>
<path d="M172.0,43.0 A9.0,9.0 0 0,0 181.0,34.0" stroke="#000000" stroke-width="2" fill="none"/>
<path d="M190.0,20.0 A9.0,9.0 0 0,0 181.0,29.0" stroke="#000000" stroke-width="2" fill="none"/>
<line x1="38" y1="34.0" x2="38" y2="29.0" stroke="#000000" stroke-width="2" />
<line x1="181.0" y1="34.0" x2="181.0" y2="29.0" stroke="#000000" stroke-width="2" />
<rect x="226.0" y="6.0" width="90.0" height="30.0" stroke="#000000" stroke-width="2" fill="#90A4AE"/>
<text class="box_font" x="271.0" y="28.0">instruction</text>
<line x1="390.0" y1="20.0" x2="391.0" y2="20.0" stroke="#000000" stroke-width="2" />
<rect x="352.0" y="31.0" width="79.0" height="30.0" stroke="#000000" stroke-width="2" fill="#90A4AE"/>
<text class="box_font" x="391.5" y="53.0">operands</text>
<line x1="351.0" y1="20.0" x2="386.0" y2="20.0" stroke="#000000" stroke-width="2" marker-end="url(#arrow)" />
<line x1="391.0" y1="20.0" x2="432.0" y2="20.0" stroke="#000000" stroke-width="2" />
<line x1="334.0" y1="20.0" x2="351.0" y2="20.0" stroke="#000000" stroke-width="2" />
<path d="M351.0,20.0 A12.5,12.5 0 0,0 351.0,45.0" stroke="#000000" stroke-width="2" fill="none"/>
<path d="M432.0,45.0 A12.5,12.5 0 0,0 432.0,20.0" stroke="#000000" stroke-width="2" fill="none"/>
<line x1="432.0" y1="20.0" x2="441.0" y2="20.0" stroke="#000000" stroke-width="2" />
<line x1="316.0" y1="20.0" x2="330.0" y2="20.0" stroke="#000000" stroke-width="2" marker-end="url(#arrow)" />
<line x1="333.75" y1="67.0" x2="334.75" y2="67.0" stroke="#000000" stroke-width="2" />
<line x1="207.0" y1="20.0" x2="221.0" y2="20.0" stroke="#000000" stroke-width="2" marker-end="url(#arrow)" />
<line x1="441.0" y1="20.0" x2="464.5" y2="20.0" stroke="#000000" stroke-width="2" />
<path d="M216.0,29.0 A9.0,9.0 0 0,0 207.0,20.0" stroke="#000000" stroke-width="2" fill="none"/>
<line x1="225.0" y1="67.0" x2="329.75" y2="67.0" stroke="#000000" stroke-width="2" marker-end="url(#arrow)" />
<line x1="334.75" y1="67.0" x2="441.5" y2="67.0" stroke="#000000" stroke-width="2" marker-end="url(#arrow)" />
<path d="M216.0,58.0 A9.0,9.0 0 0,0 225.0,67.0" stroke="#000000" stroke-width="2" fill="none"/>
<path d="M445.5,67.0 A9.0,9.0 0 0,0 454.5,58.0" stroke="#000000" stroke-width="2" fill="none"/>
<path d="M463.5,20.0 A9.0,9.0 0 0,0 454.5,29.0" stroke="#000000" stroke-width="2" fill="none"/>
<line x1="216.0" y1="58.0" x2="216.0" y2="29.0" stroke="#000000" stroke-width="2" />
<line x1="454.5" y1="58.0" x2="454.5" y2="29.0" stroke="#000000" stroke-width="2" />
<line x1="189.0" y1="20.0" x2="203.0" y2="20.0" stroke="#000000" stroke-width="2" marker-end="url(#arrow)" />
<line x1="574.0" y1="20.0" x2="575.0" y2="20.0" stroke="#000000" stroke-width="2" />
<circle cx="527.5" cy="44.0" r="18.0" stroke="#000000" stroke-width="2" fill="#B3E5FC"/>
<text class="token_font" x="527.5" y="52.0">;</text>
<rect x="564.5" y="29.0" width="77.0" height="30.0" stroke="#000000" stroke-width="2" fill="#90A4AE"/>
<text class="box_font" x="603.0" y="51.0">comment</text>
<line x1="545.5" y1="43.0" x2="559.5" y2="43.0" stroke="#000000" stroke-width="2" marker-end="url(#arrow)" />
<line x1="480.5" y1="20.0" x2="570.0" y2="20.0" stroke="#000000" stroke-width="2" marker-end="url(#arrow)" />
<line x1="575.0" y1="20.0" x2="671.5" y2="20.0" stroke="#000000" stroke-width="2" />
<path d="M489.5,29.0 A9.0,9.0 0 0,0 480.5,20.0" stroke="#000000" stroke-width="2" fill="none"/>
<line x1="498.5" y1="43.0" x2="504.5" y2="43.0" stroke="#000000" stroke-width="2" marker-end="url(#arrow)" />
<line x1="642.5" y1="43.0" x2="648.5" y2="43.0" stroke="#000000" stroke-width="2" marker-end="url(#arrow)" />
<path d="M489.5,34.0 A9.0,9.0 0 0,0 498.5,43.0" stroke="#000000" stroke-width="2" fill="none"/>
<path d="M652.5,43.0 A9.0,9.0 0 0,0 661.5,34.0" stroke="#000000" stroke-width="2" fill="none"/>
<path d="M670.5,20.0 A9.0,9.0 0 0,0 661.5,29.0" stroke="#000000" stroke-width="2" fill="none"/>
<line x1="489.5" y1="34.0" x2="489.5" y2="29.0" stroke="#000000" stroke-width="2" />
<line x1="661.5" y1="34.0" x2="661.5" y2="29.0" stroke="#000000" stroke-width="2" />
<line x1="462.5" y1="20.0" x2="476.5" y2="20.0" stroke="#000000" stroke-width="2" marker-end="url(#arrow)" />
<line x1="11" y1="20.0" x2="25.0" y2="20.0" stroke="#000000" stroke-width="2" marker-end="url(#arrow)" />
<circle cx="690.5" cy="20.0" r="3.0" stroke="#000000" stroke-width="2" fill="#FFFFFF"/>
<line x1="669.5" y1="20.0" x2="683.5" y2="20.0" stroke="#000000" stroke-width="2" marker-end="url(#arrow)" />
</svg>